<svg xmlns="http://www.w3.org/2000/svg" xmlns:xlink="http://www.w3.org/1999/xlink" viewBox="0 0 72.25 85" fill="#fff" fill-rule="evenodd" stroke="#000" stroke-linecap="round" stroke-linejoin="round"><use xlink:href="#A" x="2.125" y="2.5"/><symbol id="A" overflow="visible"><path d="M3.481 75.792c-1.382 0-1.784-.799-1.784-1.997 0-.399.051-.849.113-1.324.303-2.071 1.042-3.256 2.826-3.256 1.207 0 1.795.536 1.795 1.51v.475h1.197c.013 0 .013-.437.013-.536 0-1.422-.867-2.772-3.004-2.772-2.903 0-4.097 1.566-4.537 4.637-.063.412-.101.797-.101 1.207 0 1.81.717 3.456 3.28 3.456 1.948 0 3.104-.943 3.783-2.104l-1.144-.765c-.741 1.161-1.546 1.47-2.438 1.47zm7.855-5.716c-2.325 0-3.33 1.185-3.669 3.543a6.11 6.11 0 0 0-.064.824c0 1.522.716 2.734 2.701 2.734 2.325 0 3.343-1.236 3.683-3.558.038-.299.063-.574.063-.848.001-1.547-.741-2.695-2.714-2.695zm.968 3.544c-.252 1.71-.791 2.234-1.81 2.234-.816 0-1.218-.337-1.218-1.348 0-.25.025-.549.075-.886.252-1.697.754-2.221 1.784-2.221.83 0 1.244.337 1.244 1.36 0 .25-.025.537-.075.861zm7.592-5.605l-.389 2.291c-.025.199-.012.133.064.32-.364-.274-1.018-.456-1.458-.456-2.086 0-3.254.938-3.631 3.559-.044.277-.065.556-.063.837 0 1.91 1.131 2.622 2.651 2.622.642 0 1.27.013 1.759-.398l.125.776h1.207l1.407-9.551h-1.672zm-1.194 7.477a2.9 2.9 0 0 1-1.457.412c-.918 0-1.169-.475-1.169-1.235 0-.287.038-.623.088-.986.289-1.984.93-2.334 1.759-2.334.54 0 .954.088 1.345.3l-.567 3.843zm6.535-5.416c-2.3 0-3.38 1.085-3.745 3.543a6.87 6.87 0 0 0-.064.862c0 1.685.868 2.696 2.777 2.696 1.483 0 2.59-.612 3.18-1.735l-1.269-.512c-.364.549-.854.923-1.721.923-.93 0-1.307-.248-1.307-1.072 0-.162.013-.399.038-.399h4.536l.138-1.46c0-1.247-.477-2.846-2.563-2.846zm.867 3.034h-2.765c.277-.637.741-1.622 1.697-1.622.741 0 1.106.43 1.106 1.166-.001.125-.012.456-.038.456zm6.532-3.184l.151-1.273h-3.544l-.15 1.273h.93l-1.005 6.367h-.931l-.15 1.274h3.544l.151-1.274h-.93l1.005-6.367h.93zm7.201 1.91l.453-1.273H39.07l-.879.18c-.49-.311-1.157-.545-1.784-.545-1.798 0-3.33.862-3.33 2.822 0 .55.201.993.439 1.293-.376.199-.703.533-.703.983 0 .199.075.404.226.59-.755.45-1.218 1.196-1.218 2.069 0 1.686 1.771 2.045 3.129 2.045 1.709 0 3.745-.388 3.745-2.547 0-.736-.465-1.311-1.809-1.561l-2.425-.45c-.276-.05-.339-.138-.339-.262 0-.187.114-.287.302-.287l.164.025a5 5 0 0 0 1.093.113c1.747 0 3.305-.749 3.305-2.696 0-.275-.05-.461-.176-.761.213.1.49.263.602.263h.425 0zm-3.455 5.166c.477.088.64.262.64.574 0 1.011-1.093 1.136-1.885 1.136-1.206 0-1.658-.287-1.658-.924 0-.562.163-.823.541-1.223l2.362.437zm-.516-3.269c-.729 0-1.131-.262-1.131-.886 0-.923.541-1.46 1.483-1.46.754 0 1.119.312 1.119.923 0 .924-.528 1.424-1.471 1.424zm8.435-3.657c-.704 0-1.331.343-2.111.954l-.113-.467h-1.383l-.967 7.004h1.671l.729-5.311c.49-.299 1.093-.734 1.608-.734.628 0 .855.301.855.875a6.58 6.58 0 0 1-.038.694l-.615 4.477h1.672l.615-4.513a7.81 7.81 0 0 0 .05-.758c.001-1.187-.566-2.219-1.973-2.219zm5.148 5.736l.013-.172.728-5.078h-2.777l-.175 1.273h1.218c-.101 0-.163.112-.176.212l-.503 3.382c-.025.163-.037.502-.037.638 0 .874.477 1.499 1.457 1.499h.855l.189-1.274h-.54c-.189 0-.251-.332-.251-.481zm1.08-7.796h-1.634c-.101 0-.101-.367-.113-.243l-.227 1.794c-.013.113-.013.359.088.359h1.634c.101 0 .101-.436.113-.55l.227-1.385c.013-.125.013.024-.089.024zm3.408 7.839c-.414 0-.616-.175-.616-.549l.013-.026.528-3.444h1.91l.578-1.273h-2.312l.389-2.802-1.758.558-.315 2.244h-1.018l-.176 1.273h1.181c-.113.637-.226.224-.239.349l-.453 3.02c-.025.138-.025.237-.025.362 0 1.186.88 1.63 1.936 1.63.98 0 1.771-.284 2.388-.797l-.78-.952c-.39.237-.654.407-1.232.407zm6.133-5.778c-2.3 0-3.38 1.085-3.745 3.543-.038.3-.063.587-.063.862 0 1.685.867 2.696 2.777 2.696 1.483 0 2.59-.612 3.179-1.735l-1.269-.512c-.364.549-.855.923-1.722.923-.929 0-1.307-.248-1.307-1.072 0-.162.014-.399.039-.399h4.536l.138-1.46c0-1.247-.477-2.846-2.564-2.846zm.867 3.034h-2.765c.276-.637.74-1.622 1.697-1.622.741 0 1.106.43 1.106 1.166-.001.125-.013.456-.038.456zm6.321-3.034c-.603 0-1.169.343-1.735.879l-.1-.392h-1.382l-.968 7.004h1.684l.741-5.424c.44-.261.943-.485 1.42-.485.302 0 .59-.048.867-.011L68 70.2c-.253-.05-.504-.124-.742-.124zm-42.677-7.077c-3.804-1.633-7.363-5.783-7.372-10.029-.01-4.63 2.944-8.56 6.618-11.144-.442 1.657-.683 3.174.412 4.656a4.45 4.45 0 0 0 4.482 1.685c3.931-.855 4.112-5.147 1.781-7.647-2.304-2.476-4.533-5.273-3.656-8.865.439-1.8 1.552-3.486 2.962-4.692-1.084 2.828 1.996 5.618 4.025 7.007 3.52 2.411 7.382 4.233 10.618 7.058 3.404 2.97 5.918 6.986 5.411 11.643-.55 5.048-4.589 8.559-9.12 10.332 9.574-2.099 19.466-9.478 19.668-20.023.168-8.675-5.824-15.351-13.247-19.174l-.388-.21a3.12 3.12 0 0 1 .263 1.282 4.46 4.46 0 0 0 .124-.851c-.002.347-.047.693-.136 1.029l.012-.178c-.11.461-.296.9-.55 1.301l.109-.116c-1.481 2.439-5.49 2.969-7.47.443-3.184-4.063.067-8.444.521-12.746C40.217 8.368 36.812 3.133 32.59 0c2.325 3.736-.738 8.678-3.189 11.441-2.376 2.678-5.267 4.915-7.89 7.348-2.818 2.614-5.528 5.367-7.844 8.435-4.633 6.14-7.469 13.863-5.385 21.523 2.083 7.655 8.76 12.528 16.299 14.251z" fill="#ee4323" stroke="none"/></symbol></svg>